<?xml version="1.0" encoding="UTF-8"?>
<svg id="Favico" xmlns="http://www.w3.org/2000/svg" viewBox="0 0 1026.65 1423.17">
  <defs>
    <style>
      .cls-1 {
        stroke: #c08a64;
        stroke-miterlimit: 10;
        stroke-width: 10px;
      }

      .cls-1, .cls-2 {
        fill: #fff;
      }

      .cls-3 {
        fill: #c08a64;
      }
    </style>
  </defs>
  <rect class="cls-3" y="149.59" width="1024" height="1024"/>
  <path class="cls-2" d="M121.18,233.1h150.34v847.59H121.18V233.1Z"/>
  <path class="cls-1" d="M365.1,972.08l87.61-103.16c60.65,57.8,142.04,96.68,220.84,96.68,95.39,0,147.74-43.29,147.74-109.38,0-69.72-54.69-92.02-131.67-124.68l-115.86-50.28c-83.46-34.73-171.33-100.83-171.33-224.73,0-135.04,119.23-238.98,284.6-238.98,99.02,0,194.92,40.95,261.28,108.09l-77.24,95.39c-53.91-45.88-111.46-72.83-184.03-72.83-80.35,0-132.71,37.58-132.71,99.53,0,66.61,64.54,91.24,134.78,120.01l114.31,47.95c100.83,41.99,171.33,105.75,171.33,228.61,0,137.38-114.05,251.94-304.3,251.94-114.57,0-224.99-45.1-305.34-124.16Z"/>
</svg>